<?xml version="1.0" encoding="UTF-8"?>
<svg id="Camada_2" data-name="Camada 2" xmlns="http://www.w3.org/2000/svg" viewBox="0 0 187.53 289.79">
  <defs>
    <style>
      .cls-1, .cls-2 {
        stroke-width: 8px;
      }

      .cls-1, .cls-2, .cls-3 {
        stroke: #879e6d;
        stroke-miterlimit: 10;
      }

      .cls-1, .cls-3 {
        fill: #879e6d;
      }

      .cls-2 {
        fill: #fff;
      }
    </style>
  </defs>
  <g id="Diagramação">
    <g>
      <g>
        <text/>
        <path class="cls-3" d="M20.59,38.33l.09-.15-2.03-.03s-.09,0-.13,0l-13.14-.18,5.6,10.02c.98,2.73,3.22,5.43,6.4,7.32,5.79,3.45,12.46,2.91,14.91-1.2,2.45-4.11-.26-10.24-6.04-13.69-1.85-1.1-3.78-1.79-5.64-2.1Z"/>
        <path class="cls-2" d="M5.23,23.14c.84,2.13,0,262.66,0,262.66h104.85V23.14L57.65,4.25,5.23,23.14Z"/>
        <path class="cls-1" d="M58,5.92c.11.2,0,281.54,0,281.54"/>
        <path class="cls-3" d="M19.51,51.98l-.07.06-.22-1.13s-.01-.05-.01-.08l-1.43-7.34,6.17,2.13c1.63.27,3.36,1.26,4.74,2.85,2.51,2.89,2.89,6.69.83,8.47s-5.76.89-8.27-2.01c-.8-.92-1.39-1.94-1.74-2.95Z"/>
        <path class="cls-3" d="M37.46,41.93l-.07.06-.22-1.13s-.01-.05-.01-.08l-1.43-7.34,6.17,2.13c1.63.27,3.36,1.26,4.74,2.85,2.51,2.89,2.89,6.69.83,8.47-2.05,1.79-5.76.89-8.27-2.01-.8-.92-1.39-1.94-1.74-2.95Z"/>
        <path class="cls-3" d="M69.77,41.93l-.07.06-.22-1.13s-.01-.05-.01-.08l-1.43-7.34,6.17,2.13c1.63.27,3.36,1.26,4.74,2.85,2.51,2.89,2.89,6.69.83,8.47-2.05,1.79-5.76.89-8.27-2.01-.8-.92-1.39-1.94-1.74-2.95Z"/>
        <path class="cls-3" d="M89.87,51.98l-.07.06-.22-1.13s-.01-.05-.01-.08l-1.43-7.34,6.17,2.13c1.63.27,3.36,1.26,4.74,2.85,2.51,2.89,2.89,6.69.83,8.47-2.05,1.79-5.76.89-8.27-2.01-.8-.92-1.39-1.94-1.74-2.95Z"/>
        <path class="cls-3" d="M89.87,85.72l-.07.06-.22-1.13s-.01-.05-.01-.08l-1.43-7.34,6.17,2.13c1.63.27,3.36,1.26,4.74,2.85,2.51,2.89,2.89,6.69.83,8.47-2.05,1.79-5.76.89-8.27-2.01-.8-.92-1.39-1.94-1.74-2.95Z"/>
        <path class="cls-3" d="M69.77,79.26l-.07.06-.22-1.13s-.01-.05-.01-.08l-1.43-7.34,6.17,2.13c1.63.27,3.36,1.26,4.74,2.85,2.51,2.89,2.89,6.69.83,8.47-2.05,1.79-5.76.89-8.27-2.01-.8-.92-1.39-1.94-1.74-2.95Z"/>
        <path class="cls-3" d="M69.77,113.72l-.07.06-.22-1.13s-.01-.05-.01-.08l-1.43-7.34,6.17,2.13c1.63.27,3.36,1.26,4.74,2.85,2.51,2.89,2.89,6.69.83,8.47-2.05,1.79-5.76.89-8.27-2.01-.8-.92-1.39-1.94-1.74-2.95Z"/>
        <path class="cls-3" d="M89.87,119.46l-.07.06-.22-1.13s-.01-.05-.01-.08l-1.43-7.34,6.17,2.13c1.63.27,3.36,1.26,4.74,2.85,2.51,2.89,2.89,6.69.83,8.47-2.05,1.79-5.76.89-8.27-2.01-.8-.92-1.39-1.94-1.74-2.95Z"/>
        <path class="cls-3" d="M89.87,155.36l-.07.06-.22-1.13s-.01-.05-.01-.08l-1.43-7.34,6.17,2.13c1.63.27,3.36,1.26,4.74,2.85,2.51,2.89,2.89,6.69.83,8.47-2.05,1.79-5.76.89-8.27-2.01-.8-.92-1.39-1.94-1.74-2.95Z"/>
        <path class="cls-3" d="M69.77,146.75l-.07.06-.22-1.13s-.01-.05-.01-.08l-1.43-7.34,6.17,2.13c1.63.27,3.36,1.26,4.74,2.85,2.51,2.89,2.89,6.69.83,8.47-2.05,1.79-5.76.89-8.27-2.01-.8-.92-1.39-1.94-1.74-2.95Z"/>
        <path class="cls-3" d="M89.87,214.95l-.07.06-.22-1.13s-.01-.05-.01-.08l-1.43-7.34,6.17,2.13c1.63.27,3.36,1.26,4.74,2.85,2.51,2.89,2.89,6.69.83,8.47-2.05,1.79-5.76.89-8.27-2.01-.8-.92-1.39-1.94-1.74-2.95Z"/>
        <path class="cls-3" d="M89.87,185.51l-.07.06-.22-1.13s-.01-.05-.01-.08l-1.43-7.34,6.17,2.13c1.63.27,3.36,1.26,4.74,2.85,2.51,2.89,2.89,6.69.83,8.47-2.05,1.79-5.76.89-8.27-2.01-.8-.92-1.39-1.94-1.74-2.95Z"/>
        <path class="cls-3" d="M69.77,179.05l-.07.06-.22-1.13s-.01-.05-.01-.08l-1.43-7.34,6.17,2.13c1.63.27,3.36,1.26,4.74,2.85,2.51,2.89,2.89,6.69.83,8.47-2.05,1.79-5.76.89-8.27-2.01-.8-.92-1.39-1.94-1.74-2.95Z"/>
        <path class="cls-3" d="M69.77,212.08l-.07.06-.22-1.13s-.01-.05-.01-.08l-1.43-7.34,6.17,2.13c1.63.27,3.36,1.26,4.74,2.85,2.51,2.89,2.89,6.69.83,8.47-2.05,1.79-5.76.89-8.27-2.01-.8-.92-1.39-1.94-1.74-2.95Z"/>
        <path class="cls-3" d="M37.46,79.26l-.07.06-.22-1.13s-.01-.05-.01-.08l-1.43-7.34,6.17,2.13c1.63.27,3.36,1.26,4.74,2.85,2.51,2.89,2.89,6.69.83,8.47-2.05,1.79-5.76.89-8.27-2.01-.8-.92-1.39-1.94-1.74-2.95Z"/>
        <path class="cls-3" d="M19.51,85.72l-.07.06-.22-1.13s-.01-.05-.01-.08l-1.43-7.34,6.17,2.13c1.63.27,3.36,1.26,4.74,2.85,2.51,2.89,2.89,6.69.83,8.47-2.05,1.79-5.76.89-8.27-2.01-.8-.92-1.39-1.94-1.74-2.95Z"/>
        <path class="cls-3" d="M19.51,119.46l-.07.06-.22-1.13s-.01-.05-.01-.08l-1.43-7.34,6.17,2.13c1.63.27,3.36,1.26,4.74,2.85,2.51,2.89,2.89,6.69.83,8.47-2.05,1.79-5.76.89-8.27-2.01-.8-.92-1.39-1.94-1.74-2.95Z"/>
        <path class="cls-3" d="M37.46,113.72l-.07.06-.22-1.13s-.01-.05-.01-.08l-1.43-7.34,6.17,2.13c1.63.27,3.36,1.26,4.74,2.85,2.51,2.89,2.89,6.69.83,8.47s-5.76.89-8.27-2.01c-.8-.92-1.39-1.94-1.74-2.95Z"/>
        <path class="cls-3" d="M37.46,146.75l-.07.06-.22-1.13s-.01-.05-.01-.08l-1.43-7.34,6.17,2.13c1.63.27,3.36,1.26,4.74,2.85,2.51,2.89,2.89,6.69.83,8.47s-5.76.89-8.27-2.01c-.8-.92-1.39-1.94-1.74-2.95Z"/>
        <path class="cls-3" d="M19.51,155.36l-.07.06-.22-1.13s-.01-.05-.01-.08l-1.43-7.34,6.17,2.13c1.63.27,3.36,1.26,4.74,2.85,2.51,2.89,2.89,6.69.83,8.47-2.05,1.79-5.76.89-8.27-2.01-.8-.92-1.39-1.94-1.74-2.95Z"/>
        <path class="cls-3" d="M19.51,185.51l-.07.06-.22-1.13s-.01-.05-.01-.08l-1.43-7.34,6.17,2.13c1.63.27,3.36,1.26,4.74,2.85,2.51,2.89,2.89,6.69.83,8.47-2.05,1.79-5.76.89-8.27-2.01-.8-.92-1.39-1.94-1.74-2.95Z"/>
        <path class="cls-3" d="M19.51,214.95l-.07.06-.22-1.13s-.01-.05-.01-.08l-1.43-7.34,6.17,2.13c1.63.27,3.36,1.26,4.74,2.85,2.51,2.89,2.89,6.69.83,8.47s-5.76.89-8.27-2.01c-.8-.92-1.39-1.94-1.74-2.95Z"/>
        <path class="cls-3" d="M37.46,179.05l-.07.06-.22-1.13s-.01-.05-.01-.08l-1.43-7.34,6.17,2.13c1.63.27,3.36,1.26,4.74,2.85,2.51,2.89,2.89,6.69.83,8.47-2.05,1.79-5.76.89-8.27-2.01-.8-.92-1.39-1.94-1.74-2.95Z"/>
        <path class="cls-3" d="M37.46,212.08l-.07.06-.22-1.13s-.01-.05-.01-.08l-1.43-7.34,6.17,2.13c1.63.27,3.36,1.26,4.74,2.85,2.51,2.89,2.89,6.69.83,8.47-2.05,1.79-5.76.89-8.27-2.01-.8-.92-1.39-1.94-1.74-2.95Z"/>
      </g>
      <g>
        <text/>
        <path class="cls-3" d="M102.11,123.68l.08-.1-1.85-.02s-.08,0-.12,0l-11.96-.12,5.09,6.56c.89,1.79,2.93,3.55,5.82,4.79,5.27,2.26,11.34,1.91,13.57-.78,2.23-2.69-.23-6.7-5.5-8.96-1.68-.72-3.44-1.17-5.14-1.37Z"/>
        <path class="cls-2" d="M88.14,113.74c.76,1.4,0,171.91,0,171.91h95.39V113.74l-47.7-12.36-47.7,12.36Z"/>
        <path class="cls-1" d="M136.16,102.47c.1.13,0,184.27,0,184.27"/>
        <path class="cls-3" d="M101.13,132.62l-.07.04-.2-.74s0-.03-.01-.05l-1.3-4.81,5.62,1.39c1.48.18,3.06.82,4.32,1.86,2.29,1.89,2.63,4.38.76,5.55-1.87,1.17-5.24.58-7.53-1.31-.73-.6-1.26-1.27-1.59-1.93Z"/>
        <path class="cls-3" d="M117.46,126.04l-.07.04-.2-.74s0-.03-.01-.05l-1.3-4.81,5.62,1.39c1.48.18,3.06.82,4.32,1.86,2.29,1.89,2.63,4.38.76,5.55-1.87,1.17-5.24.58-7.53-1.31-.73-.6-1.26-1.27-1.59-1.93Z"/>
        <path class="cls-3" d="M146.86,126.04l-.07.04-.2-.74s0-.03-.01-.05l-1.3-4.81,5.62,1.39c1.48.18,3.06.82,4.32,1.86,2.29,1.89,2.63,4.38.76,5.55-1.87,1.17-5.24.58-7.53-1.31-.73-.6-1.26-1.27-1.59-1.93Z"/>
        <path class="cls-3" d="M165.15,132.62l-.07.04-.2-.74s0-.03-.01-.05l-1.3-4.81,5.62,1.39c1.48.18,3.06.82,4.32,1.86,2.29,1.89,2.63,4.38.76,5.55-1.87,1.17-5.24.58-7.53-1.31-.73-.6-1.26-1.27-1.59-1.93Z"/>
        <path class="cls-3" d="M165.15,154.7l-.07.04-.2-.74s0-.03-.01-.05l-1.3-4.81,5.62,1.39c1.48.18,3.06.82,4.32,1.86,2.29,1.89,2.63,4.38.76,5.55-1.87,1.17-5.24.58-7.53-1.31-.73-.6-1.26-1.27-1.59-1.93Z"/>
        <path class="cls-3" d="M146.86,150.47l-.07.04-.2-.74s0-.03-.01-.05l-1.3-4.81,5.62,1.39c1.48.18,3.06.82,4.32,1.86,2.29,1.89,2.63,4.38.76,5.55-1.87,1.17-5.24.58-7.53-1.31-.73-.6-1.26-1.27-1.59-1.93Z"/>
        <path class="cls-3" d="M146.86,173.03l-.07.04-.2-.74s0-.03-.01-.05l-1.3-4.81,5.62,1.39c1.48.18,3.06.82,4.32,1.86,2.29,1.89,2.63,4.38.76,5.55s-5.24.58-7.53-1.31c-.73-.6-1.26-1.27-1.59-1.93Z"/>
        <path class="cls-3" d="M165.15,176.79l-.07.04-.2-.74s0-.03-.01-.05l-1.3-4.81,5.62,1.39c1.48.18,3.06.82,4.32,1.86,2.29,1.89,2.63,4.38.76,5.55-1.87,1.17-5.24.58-7.53-1.31-.73-.6-1.26-1.27-1.59-1.93Z"/>
        <path class="cls-3" d="M165.15,200.28l-.07.04-.2-.74s0-.03-.01-.05l-1.3-4.81,5.62,1.39c1.48.18,3.06.82,4.32,1.86,2.29,1.89,2.63,4.38.76,5.55s-5.24.58-7.53-1.31c-.73-.6-1.26-1.27-1.59-1.93Z"/>
        <path class="cls-3" d="M146.86,194.64l-.07.04-.2-.74s0-.03-.01-.05l-1.3-4.81,5.62,1.39c1.48.18,3.06.82,4.32,1.86,2.29,1.89,2.63,4.38.76,5.55-1.87,1.17-5.24.58-7.53-1.31-.73-.6-1.26-1.27-1.59-1.93Z"/>
        <path class="cls-3" d="M165.15,239.28l-.07.04-.2-.74s0-.03-.01-.05l-1.3-4.81,5.62,1.39c1.48.18,3.06.82,4.32,1.86,2.29,1.89,2.63,4.38.76,5.55-1.87,1.17-5.24.58-7.53-1.31-.73-.6-1.26-1.27-1.59-1.93Z"/>
        <path class="cls-3" d="M165.15,220.02l-.07.04-.2-.74s0-.03-.01-.05l-1.3-4.81,5.62,1.39c1.48.18,3.06.82,4.32,1.86,2.29,1.89,2.63,4.38.76,5.55-1.87,1.17-5.24.58-7.53-1.31-.73-.6-1.26-1.27-1.59-1.93Z"/>
        <path class="cls-3" d="M146.86,215.79l-.07.04-.2-.74s0-.03-.01-.05l-1.3-4.81,5.62,1.39c1.48.18,3.06.82,4.32,1.86,2.29,1.89,2.63,4.38.76,5.55-1.87,1.17-5.24.58-7.53-1.31-.73-.6-1.26-1.27-1.59-1.93Z"/>
        <path class="cls-3" d="M146.86,237.4l-.07.04-.2-.74s0-.03-.01-.05l-1.3-4.81,5.62,1.39c1.48.18,3.06.82,4.32,1.86,2.29,1.89,2.63,4.38.76,5.55-1.87,1.17-5.24.58-7.53-1.31-.73-.6-1.26-1.27-1.59-1.93Z"/>
        <path class="cls-3" d="M117.46,150.47l-.07.04-.2-.74s0-.03-.01-.05l-1.3-4.81,5.62,1.39c1.48.18,3.06.82,4.32,1.86,2.29,1.89,2.63,4.38.76,5.55-1.87,1.17-5.24.58-7.53-1.31-.73-.6-1.26-1.27-1.59-1.93Z"/>
        <path class="cls-3" d="M101.13,154.7l-.07.04-.2-.74s0-.03-.01-.05l-1.3-4.81,5.62,1.39c1.48.18,3.06.82,4.32,1.86,2.29,1.89,2.63,4.38.76,5.55-1.87,1.17-5.24.58-7.53-1.31-.73-.6-1.26-1.27-1.59-1.93Z"/>
        <path class="cls-3" d="M101.13,176.79l-.07.04-.2-.74s0-.03-.01-.05l-1.3-4.81,5.62,1.39c1.48.18,3.06.82,4.32,1.86,2.29,1.89,2.63,4.38.76,5.55-1.87,1.17-5.24.58-7.53-1.31-.73-.6-1.26-1.27-1.59-1.93Z"/>
        <path class="cls-3" d="M117.46,173.03l-.07.04-.2-.74s0-.03-.01-.05l-1.3-4.81,5.62,1.39c1.48.18,3.06.82,4.32,1.86,2.29,1.89,2.63,4.38.76,5.55s-5.24.58-7.53-1.31c-.73-.6-1.26-1.27-1.59-1.93Z"/>
        <path class="cls-3" d="M117.46,194.64l-.07.04-.2-.74s0-.03-.01-.05l-1.3-4.81,5.62,1.39c1.48.18,3.06.82,4.32,1.86,2.29,1.89,2.63,4.38.76,5.55-1.87,1.17-5.24.58-7.53-1.31-.73-.6-1.26-1.27-1.59-1.93Z"/>
        <path class="cls-3" d="M101.13,200.28l-.07.04-.2-.74s0-.03-.01-.05l-1.3-4.81,5.62,1.39c1.48.18,3.06.82,4.32,1.86,2.29,1.89,2.63,4.38.76,5.55-1.87,1.17-5.24.58-7.53-1.31-.73-.6-1.26-1.27-1.59-1.93Z"/>
        <path class="cls-3" d="M101.13,220.02l-.07.04-.2-.74s0-.03-.01-.05l-1.3-4.81,5.62,1.39c1.48.18,3.06.82,4.32,1.86,2.29,1.89,2.63,4.38.76,5.55-1.87,1.17-5.24.58-7.53-1.31-.73-.6-1.26-1.27-1.59-1.93Z"/>
        <path class="cls-3" d="M101.13,239.28l-.07.04-.2-.74s0-.03-.01-.05l-1.3-4.81,5.62,1.39c1.48.18,3.06.82,4.32,1.86,2.29,1.89,2.63,4.38.76,5.55s-5.24.58-7.53-1.31c-.73-.6-1.26-1.27-1.59-1.93Z"/>
        <path class="cls-3" d="M117.46,215.79l-.07.04-.2-.74s0-.03-.01-.05l-1.3-4.81,5.62,1.39c1.48.18,3.06.82,4.32,1.86,2.29,1.89,2.63,4.38.76,5.55-1.87,1.17-5.24.58-7.53-1.31-.73-.6-1.26-1.27-1.59-1.93Z"/>
        <path class="cls-3" d="M117.46,237.4l-.07.04-.2-.74s0-.03-.01-.05l-1.3-4.81,5.62,1.39c1.48.18,3.06.82,4.32,1.86,2.29,1.89,2.63,4.38.76,5.55-1.87,1.17-5.24.58-7.53-1.31-.73-.6-1.26-1.27-1.59-1.93Z"/>
      </g>
    </g>
  </g>
</svg>