<?xml version="1.0" encoding="UTF-8"?>
<svg id="Camada_2" data-name="Camada 2" xmlns="http://www.w3.org/2000/svg" viewBox="0 0 642.97 321.07">
  <defs>
    <style>
      .cls-1 {
        letter-spacing: -.01em;
      }

      .cls-2 {
        fill: #020101;
      }

      .cls-2, .cls-3, .cls-4, .cls-5, .cls-6, .cls-7, .cls-8, .cls-9, .cls-10, .cls-11 {
        stroke: #000;
        stroke-miterlimit: 10;
      }

      .cls-3 {
        fill: #020102;
      }

      .cls-5 {
        font-size: 277.12px;
      }

      .cls-5, .cls-8 {
        font-family: Philosopher-Regular, Philosopher;
      }

      .cls-6 {
        fill: #050404;
      }

      .cls-7 {
        fill: #160f0f;
      }

      .cls-8 {
        fill: #020202;
        font-size: 62.16px;
      }

      .cls-9, .cls-10 {
        stroke-width: 8px;
      }

      .cls-9, .cls-11 {
        fill: #879e6d;
      }

      .cls-10 {
        fill: #fff;
      }

      .cls-12 {
        letter-spacing: 0em;
      }
    </style>
  </defs>
  <g id="Diagramação">
    <g>
      <text class="cls-5" transform="translate(.5 230.51) scale(.88 1)"><tspan x="0" y="0">CNL</tspan></text>
      <g>
        <text/>
        <path class="cls-11" d="M501.72,72.36l.07-.12-1.71-.02s-.08,0-.11,0l-11.07-.15,4.72,8.44c.82,2.3,2.71,4.57,5.39,6.17,4.87,2.91,10.5,2.45,12.56-1.01,2.06-3.46-.22-8.62-5.09-11.53-1.56-.93-3.19-1.51-4.75-1.77Z"/>
        <path class="cls-10" d="M488.79,59.57c.71,1.8,0,221.24,0,221.24h88.31V59.57l-44.16-15.91-44.16,15.91Z"/>
        <path class="cls-9" d="M533.24,45.06c.09.17,0,237.14,0,237.14"/>
        <path class="cls-4" d="M500.82,83.87l-.06.05-.19-.96s0-.04-.01-.06l-1.2-6.18,5.2,1.79c1.37.23,2.83,1.06,4,2.4,2.12,2.44,2.43,5.63.7,7.14-1.73,1.5-4.85.75-6.97-1.69-.68-.78-1.17-1.63-1.47-2.49Z"/>
        <path class="cls-4" d="M515.93,75.4l-.06.05-.19-.96s0-.04-.01-.06l-1.2-6.18,5.2,1.79c1.37.23,2.83,1.06,4,2.4,2.12,2.44,2.43,5.63.7,7.14s-4.85.75-6.97-1.69c-.68-.78-1.17-1.63-1.47-2.49Z"/>
        <path class="cls-4" d="M543.15,75.4l-.06.05-.18-.96s0-.04-.01-.06l-1.18-6.2,5.22,1.78c1.38.22,2.84,1.05,4,2.39,2.12,2.44,2.42,5.64.67,7.16s-4.88.77-7-1.67c-.68-.78-1.17-1.63-1.46-2.49Z"/>
        <path class="cls-4" d="M560.08,83.87l-.06.05-.19-.96s0-.04-.01-.06l-1.2-6.18,5.2,1.79c1.37.23,2.83,1.06,4,2.4,2.12,2.44,2.43,5.63.7,7.14s-4.85.75-6.97-1.69c-.68-.78-1.17-1.63-1.47-2.49Z"/>
        <path class="cls-4" d="M560.08,112.29l-.06.05-.19-.96s0-.04-.01-.06l-1.2-6.18,5.2,1.79c1.37.23,2.83,1.06,4,2.4,2.12,2.44,2.43,5.63.7,7.14s-4.85.75-6.97-1.69c-.68-.78-1.17-1.63-1.47-2.49Z"/>
        <path class="cls-4" d="M543.15,106.84l-.06.05-.19-.96s0-.04-.01-.06l-1.2-6.18,5.2,1.79c1.37.23,2.83,1.06,4,2.4,2.12,2.44,2.43,5.63.7,7.14s-4.85.75-6.97-1.69c-.68-.78-1.17-1.63-1.47-2.49Z"/>
        <path class="cls-6" d="M543.15,135.87l-.06.05-.19-.96s0-.04-.01-.06l-1.2-6.18,5.2,1.79c1.37.23,2.83,1.06,4,2.4,2.12,2.44,2.43,5.63.7,7.14s-4.85.75-6.97-1.69c-.68-.78-1.17-1.63-1.47-2.49Z"/>
        <path class="cls-4" d="M560.08,140.71l-.06.05-.19-.96s0-.04-.01-.06l-1.2-6.18,5.2,1.79c1.37.23,2.83,1.06,4,2.4,2.12,2.44,2.43,5.63.7,7.14s-4.85.75-6.97-1.69c-.68-.78-1.17-1.63-1.47-2.49Z"/>
        <path class="cls-4" d="M560.08,170.94l-.06.05-.19-.96s0-.04-.01-.06l-1.2-6.18,5.2,1.79c1.37.23,2.83,1.06,4,2.4,2.12,2.44,2.43,5.63.7,7.14s-4.85.75-6.97-1.69c-.68-.78-1.17-1.63-1.47-2.49Z"/>
        <path class="cls-4" d="M543.15,163.68l-.06.05-.19-.96s0-.04-.01-.06l-1.2-6.18,5.2,1.79c1.37.23,2.83,1.06,4,2.4,2.12,2.44,2.43,5.63.7,7.14s-4.85.75-6.97-1.69c-.68-.78-1.17-1.63-1.47-2.49Z"/>
        <path class="cls-3" d="M560.08,221.13l-.06.05-.19-.96s0-.04-.01-.06l-1.2-6.18,5.2,1.79c1.37.23,2.83,1.06,4,2.4,2.12,2.44,2.43,5.63.7,7.14s-4.85.75-6.97-1.69c-.68-.78-1.17-1.63-1.47-2.49Z"/>
        <path class="cls-4" d="M560.08,196.34l-.06.05-.19-.96s0-.04-.01-.06l-1.2-6.18,5.2,1.79c1.37.23,2.83,1.06,4,2.4,2.12,2.44,2.43,5.63.7,7.14-1.73,1.5-4.85.75-6.97-1.69-.68-.78-1.17-1.63-1.47-2.49Z"/>
        <path class="cls-4" d="M543.15,190.9l-.06.05-.19-.96s0-.04-.01-.06l-1.2-6.18,5.2,1.79c1.37.23,2.83,1.06,4,2.4,2.12,2.44,2.43,5.63.7,7.14s-4.85.75-6.97-1.69c-.68-.78-1.17-1.63-1.47-2.49Z"/>
        <path class="cls-4" d="M543.15,218.71l-.06.05-.19-.96s0-.04-.01-.06l-1.2-6.18,5.2,1.79c1.37.23,2.83,1.06,4,2.4,2.12,2.44,2.43,5.63.7,7.14s-4.85.75-6.97-1.69c-.68-.78-1.17-1.63-1.47-2.49Z"/>
        <path class="cls-4" d="M515.93,106.84l-.06.05-.19-.96s0-.04-.01-.06l-1.2-6.18,5.2,1.79c1.37.23,2.83,1.06,4,2.4,2.12,2.44,2.43,5.63.7,7.14s-4.85.75-6.97-1.69c-.68-.78-1.17-1.63-1.47-2.49Z"/>
        <path class="cls-4" d="M500.82,112.29l-.06.05-.19-.96s0-.04-.01-.06l-1.2-6.18,5.2,1.79c1.37.23,2.83,1.06,4,2.4,2.12,2.44,2.43,5.63.7,7.14-1.73,1.5-4.85.75-6.97-1.69-.68-.78-1.17-1.63-1.47-2.49Z"/>
        <path class="cls-6" d="M500.82,140.71l-.06.05-.19-.96s0-.04-.01-.06l-1.2-6.18,5.2,1.79c1.37.23,2.83,1.06,4,2.4,2.12,2.44,2.43,5.63.7,7.14-1.73,1.5-4.85.75-6.97-1.69-.68-.78-1.17-1.63-1.47-2.49Z"/>
        <path class="cls-4" d="M515.93,135.87l-.06.05-.19-.96s0-.04-.01-.06l-1.2-6.18,5.2,1.79c1.37.23,2.83,1.06,4,2.4,2.12,2.44,2.43,5.63.7,7.14s-4.85.75-6.97-1.69c-.68-.78-1.17-1.63-1.47-2.49Z"/>
        <path class="cls-4" d="M515.93,163.68l-.06.05-.19-.96s0-.04-.01-.06l-1.2-6.18,5.2,1.79c1.37.23,2.83,1.06,4,2.4,2.12,2.44,2.43,5.63.7,7.14s-4.85.75-6.97-1.69c-.68-.78-1.17-1.63-1.47-2.49Z"/>
        <path class="cls-4" d="M500.82,170.94l-.06.05-.19-.96s0-.04-.01-.06l-1.2-6.18,5.2,1.79c1.37.23,2.83,1.06,4,2.4,2.12,2.44,2.43,5.63.7,7.14-1.73,1.5-4.85.75-6.97-1.69-.68-.78-1.17-1.63-1.47-2.49Z"/>
        <path class="cls-4" d="M500.82,196.34l-.06.05-.19-.96s0-.04-.01-.06l-1.2-6.18,5.2,1.79c1.37.23,2.83,1.06,4,2.4,2.12,2.44,2.43,5.63.7,7.14-1.73,1.5-4.85.75-6.97-1.69-.68-.78-1.17-1.63-1.47-2.49Z"/>
        <path class="cls-4" d="M500.82,221.13l-.06.05-.19-.96s0-.04-.01-.06l-1.2-6.18,5.2,1.79c1.37.23,2.83,1.06,4,2.4,2.12,2.44,2.43,5.63.7,7.14-1.73,1.5-4.85.75-6.97-1.69-.68-.78-1.17-1.63-1.47-2.49Z"/>
        <path class="cls-4" d="M515.93,190.05l-.06.05-.19-.96s0-.04-.01-.06l-1.2-6.18,5.2,1.79c1.37.23,2.83,1.06,4,2.4,2.12,2.44,2.43,5.63.7,7.14s-4.85.75-6.97-1.69c-.68-.78-1.17-1.63-1.47-2.49Z"/>
        <path class="cls-4" d="M515.93,218.71l-.06.05-.19-.96s0-.04-.01-.06l-1.2-6.18,5.2,1.79c1.37.23,2.83,1.06,4,2.4,2.12,2.44,2.43,5.63.7,7.14s-4.85.75-6.97-1.69c-.68-.78-1.17-1.63-1.47-2.49Z"/>
      </g>
      <g>
        <text/>
        <path class="cls-11" d="M570.39,144.26l.07-.08-1.56-.02s-.07,0-.1,0l-10.07-.1,4.29,5.52c.75,1.5,2.47,2.99,4.9,4.04,4.43,1.9,9.55,1.61,11.43-.66s-.2-5.64-4.63-7.54c-1.42-.61-2.9-.99-4.33-1.16Z"/>
        <path class="cls-10" d="M558.62,135.88c.64,1.18,0,144.8,0,144.8h80.35v-144.8l-40.17-10.41-40.17,10.41Z"/>
        <path class="cls-9" d="M599.07,126.39c.08.11,0,155.21,0,155.21"/>
        <path class="cls-4" d="M569.57,151.78l-.06.04-.17-.63s0-.03-.01-.04l-1.09-4.05,4.73,1.17c1.25.15,2.58.69,3.64,1.57,1.93,1.6,2.21,3.69.64,4.67-1.57.98-4.41.49-6.34-1.11-.61-.51-1.06-1.07-1.34-1.63Z"/>
        <path class="cls-4" d="M583.32,146.24l-.06.04-.17-.63s0-.03-.01-.04l-1.09-4.05,4.73,1.17c1.25.15,2.58.69,3.64,1.57,1.93,1.6,2.21,3.69.64,4.67s-4.41.49-6.34-1.11c-.61-.51-1.06-1.07-1.34-1.63Z"/>
        <path class="cls-4" d="M608.08,146.24l-.06.04-.17-.63s0-.03-.01-.04l-1.09-4.05,4.73,1.17c1.25.15,2.58.69,3.64,1.57,1.93,1.6,2.21,3.69.64,4.67-1.57.98-4.41.49-6.34-1.11-.61-.51-1.06-1.07-1.34-1.63Z"/>
        <path class="cls-4" d="M623.48,151.78l-.06.04-.17-.63s0-.03-.01-.04l-1.09-4.05,4.73,1.17c1.25.15,2.58.69,3.64,1.57,1.93,1.6,2.21,3.69.64,4.67-1.57.98-4.41.49-6.34-1.11-.61-.51-1.06-1.07-1.34-1.63Z"/>
        <path class="cls-4" d="M623.48,170.39l-.06.04-.17-.63s0-.03-.01-.04l-1.09-4.05,4.73,1.17c1.25.15,2.58.69,3.64,1.57,1.93,1.6,2.21,3.69.64,4.67-1.57.98-4.41.49-6.34-1.11-.61-.51-1.06-1.07-1.34-1.63Z"/>
        <path class="cls-4" d="M608.08,166.82l-.06.04-.17-.63s0-.03-.01-.04l-1.09-4.05,4.73,1.17c1.25.15,2.58.69,3.64,1.57,1.93,1.6,2.21,3.69.64,4.67-1.57.98-4.41.49-6.34-1.11-.61-.51-1.06-1.07-1.34-1.63Z"/>
        <path class="cls-2" d="M608.08,185.82l-.06.04-.17-.63s0-.03-.01-.04l-1.09-4.05,4.73,1.17c1.25.15,2.58.69,3.64,1.57,1.93,1.6,2.21,3.69.64,4.67-1.57.98-4.41.49-6.34-1.11-.61-.51-1.06-1.07-1.34-1.63Z"/>
        <path class="cls-4" d="M623.48,188.99l-.06.04-.17-.63s0-.03-.01-.04l-1.09-4.05,4.73,1.17c1.25.15,2.58.69,3.64,1.57,1.93,1.6,2.21,3.69.64,4.67-1.57.98-4.41.49-6.34-1.11-.61-.51-1.06-1.07-1.34-1.63Z"/>
        <path class="cls-3" d="M623.48,208.78l-.06.04-.17-.63s0-.03-.01-.04l-1.09-4.05,4.73,1.17c1.25.15,2.58.69,3.64,1.57,1.93,1.6,2.21,3.69.64,4.67s-4.41.49-6.34-1.11c-.61-.51-1.06-1.07-1.34-1.63Z"/>
        <path class="cls-4" d="M608.08,204.03l-.06.04-.17-.63s0-.03-.01-.04l-1.09-4.05,4.73,1.17c1.25.15,2.58.69,3.64,1.57,1.93,1.6,2.21,3.69.64,4.67s-4.41.49-6.34-1.11c-.61-.51-1.06-1.07-1.34-1.63Z"/>
        <path class="cls-4" d="M623.48,241.63l-.06.04-.17-.63s0-.03-.01-.04l-1.09-4.05,4.73,1.17c1.25.15,2.58.69,3.64,1.57,1.93,1.6,2.21,3.69.64,4.67-1.57.98-4.41.49-6.34-1.11-.61-.51-1.06-1.07-1.34-1.63Z"/>
        <path class="cls-4" d="M623.48,225.4l-.06.04-.17-.63s0-.03-.01-.04l-1.09-4.05,4.73,1.17c1.25.15,2.58.69,3.64,1.57,1.93,1.6,2.21,3.69.64,4.67-1.57.98-4.41.49-6.34-1.11-.61-.51-1.06-1.07-1.34-1.63Z"/>
        <path class="cls-4" d="M608.08,221.84l-.06.04-.17-.63s0-.03-.01-.04l-1.09-4.05,4.73,1.17c1.25.15,2.58.69,3.64,1.57,1.93,1.6,2.21,3.69.64,4.67s-4.41.49-6.34-1.11c-.61-.51-1.06-1.07-1.34-1.63Z"/>
        <path class="cls-6" d="M608.08,240.04l-.06.04-.17-.63s0-.03-.01-.04l-1.09-4.05,4.73,1.17c1.25.15,2.58.69,3.64,1.57,1.93,1.6,2.21,3.69.64,4.67s-4.41.49-6.34-1.11c-.61-.51-1.06-1.07-1.34-1.63Z"/>
        <path class="cls-4" d="M583.32,166.82l-.06.04-.17-.63s0-.03-.01-.04l-1.09-4.05,4.73,1.17c1.25.15,2.58.69,3.64,1.57,1.93,1.6,2.21,3.69.64,4.67s-4.41.49-6.34-1.11c-.61-.51-1.06-1.07-1.34-1.63Z"/>
        <path class="cls-7" d="M569.57,170.39l-.06.04-.17-.63s0-.03-.01-.04l-1.09-4.05,4.73,1.17c1.25.15,2.58.69,3.64,1.57,1.93,1.6,2.21,3.69.64,4.67-1.57.98-4.41.49-6.34-1.11-.61-.51-1.06-1.07-1.34-1.63Z"/>
        <path class="cls-4" d="M569.57,188.99l-.06.04-.17-.63s0-.03-.01-.04l-1.09-4.05,4.73,1.17c1.25.15,2.58.69,3.64,1.57,1.93,1.6,2.21,3.69.64,4.67-1.57.98-4.41.49-6.34-1.11-.61-.51-1.06-1.07-1.34-1.63Z"/>
        <path class="cls-4" d="M583.32,185.82l-.06.04-.17-.63s0-.03-.01-.04l-1.09-4.05,4.73,1.17c1.25.15,2.58.69,3.64,1.57,1.93,1.6,2.21,3.69.64,4.67s-4.41.49-6.34-1.11c-.61-.51-1.06-1.07-1.34-1.63Z"/>
        <path class="cls-4" d="M583.32,204.03l-.06.04-.17-.63s0-.03-.01-.04l-1.09-4.05,4.73,1.17c1.25.15,2.58.69,3.64,1.57,1.93,1.6,2.21,3.69.64,4.67-1.57.98-4.41.49-6.34-1.11-.61-.51-1.06-1.07-1.34-1.63Z"/>
        <path class="cls-4" d="M569.57,208.78l-.06.04-.17-.63s0-.03-.01-.04l-1.09-4.05,4.73,1.17c1.25.15,2.58.69,3.64,1.57,1.93,1.6,2.21,3.69.64,4.67-1.57.98-4.41.49-6.34-1.11-.61-.51-1.06-1.07-1.34-1.63Z"/>
        <path class="cls-4" d="M569.57,225.4l-.06.04-.17-.63s0-.03-.01-.04l-1.09-4.05,4.73,1.17c1.25.15,2.58.69,3.64,1.57,1.93,1.6,2.21,3.69.64,4.67-1.57.98-4.41.49-6.34-1.11-.61-.51-1.06-1.07-1.34-1.63Z"/>
        <path class="cls-4" d="M569.57,241.63l-.06.04-.17-.63s0-.03-.01-.04l-1.09-4.05,4.73,1.17c1.25.15,2.58.69,3.64,1.57,1.93,1.6,2.21,3.69.64,4.67-1.57.98-4.41.49-6.34-1.11-.61-.51-1.06-1.07-1.34-1.63Z"/>
        <path class="cls-4" d="M583.32,221.84l-.06.04-.17-.63s0-.03-.01-.04l-1.09-4.05,4.73,1.17c1.25.15,2.58.69,3.64,1.57,1.93,1.6,2.21,3.69.64,4.67-1.57.98-4.41.49-6.34-1.11-.61-.51-1.06-1.07-1.34-1.63Z"/>
        <path class="cls-4" d="M583.32,240.04l-.06.04-.17-.63s0-.03-.01-.04l-1.09-4.05,4.73,1.17c1.25.15,2.58.69,3.64,1.57,1.93,1.6,2.21,3.69.64,4.67-1.57.98-4.41.49-6.34-1.11-.61-.51-1.06-1.07-1.34-1.63Z"/>
      </g>
      <text class="cls-8" transform="translate(5.81 281.48)"><tspan x="0" y="0">construct n</tspan><tspan class="cls-12" x="303.81" y="0">e</tspan><tspan x="333.83" y="0">w li</tspan><tspan class="cls-1" x="426.25" y="0">f</tspan><tspan x="446.45" y="0">e</tspan></text>
    </g>
  </g>
</svg>