<?xml version="1.0" encoding="UTF-8"?>
<svg id="Camada_2" data-name="Camada 2" xmlns="http://www.w3.org/2000/svg" viewBox="0 0 642.27 320.07">
  <defs>
    <style>
      .cls-1 {
        letter-spacing: -.01em;
      }

      .cls-2, .cls-3, .cls-4, .cls-5, .cls-6 {
        stroke-miterlimit: 10;
      }

      .cls-2, .cls-3, .cls-5 {
        stroke: #fff;
      }

      .cls-2, .cls-5 {
        stroke-width: 8px;
      }

      .cls-3, .cls-7, .cls-4, .cls-8, .cls-9 {
        fill: #fff;
      }

      .cls-4, .cls-6 {
        stroke: #000;
      }

      .cls-8 {
        font-size: 62.16px;
      }

      .cls-8, .cls-9 {
        font-family: Philosopher-Regular, Philosopher;
      }

      .cls-5, .cls-6 {
        fill: #879e6d;
      }

      .cls-10 {
        letter-spacing: 0em;
      }

      .cls-9 {
        font-size: 277.12px;
      }
    </style>
  </defs>
  <g id="Diagramação">
    <g>
      <text class="cls-9" transform="translate(0 230.01) scale(.88 1)"><tspan x="0" y="0">CNL</tspan></text>
      <g>
        <text/>
        <path class="cls-6" d="M501.22,71.86l.07-.12-1.71-.02s-.08,0-.11,0l-11.07-.15,4.72,8.44c.82,2.3,2.71,4.57,5.39,6.17,4.87,2.91,10.5,2.45,12.56-1.01,2.06-3.46-.22-8.62-5.09-11.53-1.56-.93-3.19-1.51-4.75-1.77Z"/>
        <path class="cls-2" d="M488.29,59.07c.71,1.8,0,221.24,0,221.24h88.31V59.07l-44.16-15.91-44.16,15.91Z"/>
        <path class="cls-5" d="M532.74,44.56c.09.17,0,237.14,0,237.14"/>
        <path class="cls-7" d="M500.32,83.37l-.06.05-.19-.96s0-.04-.01-.06l-1.2-6.18,5.2,1.79c1.37.23,2.83,1.06,4,2.4,2.12,2.44,2.43,5.63.7,7.14s-4.85.75-6.97-1.69c-.68-.78-1.17-1.63-1.47-2.49Z"/>
        <path class="cls-7" d="M515.44,74.9l-.06.05-.19-.96s0-.04-.01-.06l-1.2-6.18,5.2,1.79c1.37.23,2.83,1.06,4,2.4,2.12,2.44,2.43,5.63.7,7.14s-4.85.75-6.97-1.69c-.68-.78-1.17-1.63-1.47-2.49Z"/>
        <path class="cls-4" d="M542.65,74.9l-.06.05-.18-.96s0-.04-.01-.06l-1.18-6.2,5.22,1.78c1.38.22,2.84,1.05,4,2.39,2.12,2.44,2.42,5.64.67,7.16-1.75,1.52-4.88.77-7-1.67-.68-.78-1.17-1.63-1.46-2.49Z"/>
        <path class="cls-4" d="M559.58,83.37l-.06.05-.19-.96s0-.04-.01-.06l-1.2-6.18,5.2,1.79c1.37.23,2.83,1.06,4,2.4,2.12,2.44,2.43,5.63.7,7.14-1.73,1.5-4.85.75-6.97-1.69-.68-.78-1.17-1.63-1.47-2.49Z"/>
        <path class="cls-4" d="M559.58,111.79l-.06.05-.19-.96s0-.04-.01-.06l-1.2-6.18,5.2,1.79c1.37.23,2.83,1.06,4,2.4,2.12,2.44,2.43,5.63.7,7.14-1.73,1.5-4.85.75-6.97-1.69-.68-.78-1.17-1.63-1.47-2.49Z"/>
        <path class="cls-4" d="M542.65,106.34l-.06.05-.19-.96s0-.04-.01-.06l-1.2-6.18,5.2,1.79c1.37.23,2.83,1.06,4,2.4,2.12,2.44,2.43,5.63.7,7.14-1.73,1.5-4.85.75-6.97-1.69-.68-.78-1.17-1.63-1.47-2.49Z"/>
        <path class="cls-4" d="M542.65,135.37l-.06.05-.19-.96s0-.04-.01-.06l-1.2-6.18,5.2,1.79c1.37.23,2.83,1.06,4,2.4,2.12,2.44,2.43,5.63.7,7.14-1.73,1.5-4.85.75-6.97-1.69-.68-.78-1.17-1.63-1.47-2.49Z"/>
        <path class="cls-4" d="M559.58,140.21l-.06.05-.19-.96s0-.04-.01-.06l-1.2-6.18,5.2,1.79c1.37.23,2.83,1.06,4,2.4,2.12,2.44,2.43,5.63.7,7.14s-4.85.75-6.97-1.69c-.68-.78-1.17-1.63-1.47-2.49Z"/>
        <path class="cls-4" d="M559.58,170.44l-.06.05-.19-.96s0-.04-.01-.06l-1.2-6.18,5.2,1.79c1.37.23,2.83,1.06,4,2.4,2.12,2.44,2.43,5.63.7,7.14-1.73,1.5-4.85.75-6.97-1.69-.68-.78-1.17-1.63-1.47-2.49Z"/>
        <path class="cls-4" d="M542.65,163.18l-.06.05-.19-.96s0-.04-.01-.06l-1.2-6.18,5.2,1.79c1.37.23,2.83,1.06,4,2.4,2.12,2.44,2.43,5.63.7,7.14-1.73,1.5-4.85.75-6.97-1.69-.68-.78-1.17-1.63-1.47-2.49Z"/>
        <path class="cls-4" d="M559.58,220.63l-.06.05-.19-.96s0-.04-.01-.06l-1.2-6.18,5.2,1.79c1.37.23,2.83,1.06,4,2.4,2.12,2.44,2.43,5.63.7,7.14-1.73,1.5-4.85.75-6.97-1.69-.68-.78-1.17-1.63-1.47-2.49Z"/>
        <path class="cls-4" d="M559.58,195.84l-.06.05-.19-.96s0-.04-.01-.06l-1.2-6.18,5.2,1.79c1.37.23,2.83,1.06,4,2.4,2.12,2.44,2.43,5.63.7,7.14-1.73,1.5-4.85.75-6.97-1.69-.68-.78-1.17-1.63-1.47-2.49Z"/>
        <path class="cls-4" d="M542.65,190.4l-.06.05-.19-.96s0-.04-.01-.06l-1.2-6.18,5.2,1.79c1.37.23,2.83,1.06,4,2.4,2.12,2.44,2.43,5.63.7,7.14-1.73,1.5-4.85.75-6.97-1.69-.68-.78-1.17-1.63-1.47-2.49Z"/>
        <path class="cls-4" d="M542.65,218.21l-.06.05-.19-.96s0-.04-.01-.06l-1.2-6.18,5.2,1.79c1.37.23,2.83,1.06,4,2.4,2.12,2.44,2.43,5.63.7,7.14-1.73,1.5-4.85.75-6.97-1.69-.68-.78-1.17-1.63-1.47-2.49Z"/>
        <path class="cls-7" d="M515.44,106.34l-.06.05-.19-.96s0-.04-.01-.06l-1.2-6.18,5.2,1.79c1.37.23,2.83,1.06,4,2.4,2.12,2.44,2.43,5.63.7,7.14s-4.85.75-6.97-1.69c-.68-.78-1.17-1.63-1.47-2.49Z"/>
        <path class="cls-7" d="M500.32,111.79l-.06.05-.19-.96s0-.04-.01-.06l-1.2-6.18,5.2,1.79c1.37.23,2.83,1.06,4,2.4,2.12,2.44,2.43,5.63.7,7.14s-4.85.75-6.97-1.69c-.68-.78-1.17-1.63-1.47-2.49Z"/>
        <path class="cls-7" d="M500.32,140.21l-.06.05-.19-.96s0-.04-.01-.06l-1.2-6.18,5.2,1.79c1.37.23,2.83,1.06,4,2.4,2.12,2.44,2.43,5.63.7,7.14-1.73,1.5-4.85.75-6.97-1.69-.68-.78-1.17-1.63-1.47-2.49Z"/>
        <path class="cls-7" d="M515.44,135.37l-.06.05-.19-.96s0-.04-.01-.06l-1.2-6.18,5.2,1.79c1.37.23,2.83,1.06,4,2.4,2.12,2.44,2.43,5.63.7,7.14s-4.85.75-6.97-1.69c-.68-.78-1.17-1.63-1.47-2.49Z"/>
        <path class="cls-7" d="M515.44,163.18l-.06.05-.19-.96s0-.04-.01-.06l-1.2-6.18,5.2,1.79c1.37.23,2.83,1.06,4,2.4,2.12,2.44,2.43,5.63.7,7.14s-4.85.75-6.97-1.69c-.68-.78-1.17-1.63-1.47-2.49Z"/>
        <path class="cls-7" d="M500.32,170.44l-.06.05-.19-.96s0-.04-.01-.06l-1.2-6.18,5.2,1.79c1.37.23,2.83,1.06,4,2.4,2.12,2.44,2.43,5.63.7,7.14-1.73,1.5-4.85.75-6.97-1.69-.68-.78-1.17-1.63-1.47-2.49Z"/>
        <path class="cls-7" d="M500.32,195.84l-.06.05-.19-.96s0-.04-.01-.06l-1.2-6.18,5.2,1.79c1.37.23,2.83,1.06,4,2.4,2.12,2.44,2.43,5.63.7,7.14s-4.85.75-6.97-1.69c-.68-.78-1.17-1.63-1.47-2.49Z"/>
        <path class="cls-7" d="M500.32,220.63l-.06.05-.19-.96s0-.04-.01-.06l-1.2-6.18,5.2,1.79c1.37.23,2.83,1.06,4,2.4,2.12,2.44,2.43,5.63.7,7.14s-4.85.75-6.97-1.69c-.68-.78-1.17-1.63-1.47-2.49Z"/>
        <path class="cls-7" d="M515.44,189.55l-.06.05-.19-.96s0-.04-.01-.06l-1.2-6.18,5.2,1.79c1.37.23,2.83,1.06,4,2.4,2.12,2.44,2.43,5.63.7,7.14s-4.85.75-6.97-1.69c-.68-.78-1.17-1.63-1.47-2.49Z"/>
        <path class="cls-7" d="M515.44,218.21l-.06.05-.19-.96s0-.04-.01-.06l-1.2-6.18,5.2,1.79c1.37.23,2.83,1.06,4,2.4,2.12,2.44,2.43,5.63.7,7.14s-4.85.75-6.97-1.69c-.68-.78-1.17-1.63-1.47-2.49Z"/>
      </g>
      <g>
        <text/>
        <path class="cls-6" d="M569.89,143.76l.07-.08-1.56-.02s-.07,0-.1,0l-10.07-.1,4.29,5.52c.75,1.5,2.47,2.99,4.9,4.04,4.43,1.9,9.55,1.61,11.43-.66,1.88-2.27-.2-5.64-4.63-7.54-1.42-.61-2.9-.99-4.33-1.16Z"/>
        <path class="cls-2" d="M557.92,133.72c.64,1.18,0,144.8,0,144.8h80.35v-144.8l-40.17-10.41-40.17,10.41Z"/>
        <path class="cls-5" d="M598.57,125.89c.08.11,0,155.21,0,155.21"/>
        <path class="cls-3" d="M569.07,151.29l-.06.04-.17-.63s0-.03-.01-.04l-1.09-4.05,4.73,1.17c1.25.15,2.58.69,3.64,1.57,1.93,1.6,2.21,3.69.64,4.67s-4.41.49-6.34-1.11c-.61-.51-1.06-1.07-1.34-1.63Z"/>
        <path class="cls-3" d="M582.82,145.74l-.06.04-.17-.63s0-.03-.01-.04l-1.09-4.05,4.73,1.17c1.25.15,2.58.69,3.64,1.57,1.93,1.6,2.21,3.69.64,4.67s-4.41.49-6.34-1.11c-.61-.51-1.06-1.07-1.34-1.63Z"/>
        <path class="cls-3" d="M607.58,145.74l-.06.04-.17-.63s0-.03-.01-.04l-1.09-4.05,4.73,1.17c1.25.15,2.58.69,3.64,1.57,1.93,1.6,2.21,3.69.64,4.67s-4.41.49-6.34-1.11c-.61-.51-1.06-1.07-1.34-1.63Z"/>
        <path class="cls-3" d="M622.98,151.29l-.06.04-.17-.63s0-.03-.01-.04l-1.09-4.05,4.73,1.17c1.25.15,2.58.69,3.64,1.57,1.93,1.6,2.21,3.69.64,4.67s-4.41.49-6.34-1.11c-.61-.51-1.06-1.07-1.34-1.63Z"/>
        <path class="cls-3" d="M622.98,169.89l-.06.04-.17-.63s0-.03-.01-.04l-1.09-4.05,4.73,1.17c1.25.15,2.58.69,3.64,1.57,1.93,1.6,2.21,3.69.64,4.67s-4.41.49-6.34-1.11c-.61-.51-1.06-1.07-1.34-1.63Z"/>
        <path class="cls-3" d="M607.58,166.32l-.06.04-.17-.63s0-.03-.01-.04l-1.09-4.05,4.73,1.17c1.25.15,2.58.69,3.64,1.57,1.93,1.6,2.21,3.69.64,4.67-1.57.98-4.41.49-6.34-1.11-.61-.51-1.06-1.07-1.34-1.63Z"/>
        <path class="cls-3" d="M607.58,185.32l-.06.04-.17-.63s0-.03-.01-.04l-1.09-4.05,4.73,1.17c1.25.15,2.58.69,3.64,1.57,1.93,1.6,2.21,3.69.64,4.67-1.57.98-4.41.49-6.34-1.11-.61-.51-1.06-1.07-1.34-1.63Z"/>
        <path class="cls-3" d="M622.98,188.49l-.06.04-.17-.63s0-.03-.01-.04l-1.09-4.05,4.73,1.17c1.25.15,2.58.69,3.64,1.57,1.93,1.6,2.21,3.69.64,4.67s-4.41.49-6.34-1.11c-.61-.51-1.06-1.07-1.34-1.63Z"/>
        <path class="cls-3" d="M622.98,208.28l-.06.04-.17-.63s0-.03-.01-.04l-1.09-4.05,4.73,1.17c1.25.15,2.58.69,3.64,1.57,1.93,1.6,2.21,3.69.64,4.67-1.57.98-4.41.49-6.34-1.11-.61-.51-1.06-1.07-1.34-1.63Z"/>
        <path class="cls-3" d="M607.58,203.53l-.06.04-.17-.63s0-.03-.01-.04l-1.09-4.05,4.73,1.17c1.25.15,2.58.69,3.64,1.57,1.93,1.6,2.21,3.69.64,4.67s-4.41.49-6.34-1.11c-.61-.51-1.06-1.07-1.34-1.63Z"/>
        <path class="cls-3" d="M622.98,241.13l-.06.04-.17-.63s0-.03-.01-.04l-1.09-4.05,4.73,1.17c1.25.15,2.58.69,3.64,1.57,1.93,1.6,2.21,3.69.64,4.67s-4.41.49-6.34-1.11c-.61-.51-1.06-1.07-1.34-1.63Z"/>
        <path class="cls-3" d="M622.98,224.9l-.06.04-.17-.63s0-.03-.01-.04l-1.09-4.05,4.73,1.17c1.25.15,2.58.69,3.64,1.57,1.93,1.6,2.21,3.69.64,4.67s-4.41.49-6.34-1.11c-.61-.51-1.06-1.07-1.34-1.63Z"/>
        <path class="cls-3" d="M607.58,221.34l-.06.04-.17-.63s0-.03-.01-.04l-1.09-4.05,4.73,1.17c1.25.15,2.58.69,3.64,1.57,1.93,1.6,2.21,3.69.64,4.67s-4.41.49-6.34-1.11c-.61-.51-1.06-1.07-1.34-1.63Z"/>
        <path class="cls-3" d="M607.58,239.54l-.06.04-.17-.63s0-.03-.01-.04l-1.09-4.05,4.73,1.17c1.25.15,2.58.69,3.64,1.57,1.93,1.6,2.21,3.69.64,4.67s-4.41.49-6.34-1.11c-.61-.51-1.06-1.07-1.34-1.63Z"/>
        <path class="cls-3" d="M582.82,166.32l-.06.04-.17-.63s0-.03-.01-.04l-1.09-4.05,4.73,1.17c1.25.15,2.58.69,3.64,1.57,1.93,1.6,2.21,3.69.64,4.67-1.57.98-4.41.49-6.34-1.11-.61-.51-1.06-1.07-1.34-1.63Z"/>
        <path class="cls-3" d="M569.07,169.89l-.06.04-.17-.63s0-.03-.01-.04l-1.09-4.05,4.73,1.17c1.25.15,2.58.69,3.64,1.57,1.93,1.6,2.21,3.69.64,4.67s-4.41.49-6.34-1.11c-.61-.51-1.06-1.07-1.34-1.63Z"/>
        <path class="cls-3" d="M569.07,188.49l-.06.04-.17-.63s0-.03-.01-.04l-1.09-4.05,4.73,1.17c1.25.15,2.58.69,3.64,1.57,1.93,1.6,2.21,3.69.64,4.67s-4.41.49-6.34-1.11c-.61-.51-1.06-1.07-1.34-1.63Z"/>
        <path class="cls-3" d="M582.82,185.32l-.06.04-.17-.63s0-.03-.01-.04l-1.09-4.05,4.73,1.17c1.25.15,2.58.69,3.64,1.57,1.93,1.6,2.21,3.69.64,4.67-1.57.98-4.41.49-6.34-1.11-.61-.51-1.06-1.07-1.34-1.63Z"/>
        <path class="cls-3" d="M582.82,203.53l-.06.04-.17-.63s0-.03-.01-.04l-1.09-4.05,4.73,1.17c1.25.15,2.58.69,3.64,1.57,1.93,1.6,2.21,3.69.64,4.67s-4.41.49-6.34-1.11c-.61-.51-1.06-1.07-1.34-1.63Z"/>
        <path class="cls-3" d="M569.07,208.28l-.06.04-.17-.63s0-.03-.01-.04l-1.09-4.05,4.73,1.17c1.25.15,2.58.69,3.64,1.57,1.93,1.6,2.21,3.69.64,4.67s-4.41.49-6.34-1.11c-.61-.51-1.06-1.07-1.34-1.63Z"/>
        <path class="cls-3" d="M569.07,224.9l-.06.04-.17-.63s0-.03-.01-.04l-1.09-4.05,4.73,1.17c1.25.15,2.58.69,3.64,1.57,1.93,1.6,2.21,3.69.64,4.67-1.57.98-4.41.49-6.34-1.11-.61-.51-1.06-1.07-1.34-1.63Z"/>
        <path class="cls-3" d="M569.07,241.13l-.06.04-.17-.63s0-.03-.01-.04l-1.09-4.05,4.73,1.17c1.25.15,2.58.69,3.64,1.57,1.93,1.6,2.21,3.69.64,4.67-1.57.98-4.41.49-6.34-1.11-.61-.51-1.06-1.07-1.34-1.63Z"/>
        <path class="cls-3" d="M582.82,221.34l-.06.04-.17-.63s0-.03-.01-.04l-1.09-4.05,4.73,1.17c1.25.15,2.58.69,3.64,1.57,1.93,1.6,2.21,3.69.64,4.67s-4.41.49-6.34-1.11c-.61-.51-1.06-1.07-1.34-1.63Z"/>
        <path class="cls-3" d="M582.82,239.54l-.06.04-.17-.63s0-.03-.01-.04l-1.09-4.05,4.73,1.17c1.25.15,2.58.69,3.64,1.57,1.93,1.6,2.21,3.69.64,4.67s-4.41.49-6.34-1.11c-.61-.51-1.06-1.07-1.34-1.63Z"/>
      </g>
      <text class="cls-8" transform="translate(5.31 280.98)"><tspan x="0" y="0">construct n</tspan><tspan class="cls-10" x="303.81" y="0">e</tspan><tspan x="333.83" y="0">w li</tspan><tspan class="cls-1" x="426.25" y="0">f</tspan><tspan x="446.45" y="0">e</tspan></text>
    </g>
  </g>
</svg>