<?xml version="1.0" encoding="UTF-8"?>
<svg id="Camada_2" data-name="Camada 2" xmlns="http://www.w3.org/2000/svg" viewBox="0 0 869 428">
  <defs>
    <style>
      .cls-1 {
        letter-spacing: 0em;
      }

      .cls-2, .cls-3 {
        fill: #fff;
      }

      .cls-4, .cls-3 {
        stroke-width: 8px;
      }

      .cls-4, .cls-3, .cls-5, .cls-6 {
        stroke: #879e6d;
        stroke-miterlimit: 10;
      }

      .cls-4, .cls-5, .cls-6 {
        fill: #879e6d;
      }

      .cls-7 {
        letter-spacing: -.01em;
      }

      .cls-8 {
        letter-spacing: 0em;
      }

      .cls-5 {
        font-size: 329.01px;
      }

      .cls-5, .cls-9 {
        font-family: Philosopher-Regular, Philosopher;
      }

      .cls-9 {
        fill: #585e51;
        font-size: 73.79px;
      }
    </style>
  </defs>
  <g id="Diagramação">
    <rect class="cls-2" width="869" height="428"/>
    <g>
      <text class="cls-5" transform="translate(46.49 294.57) scale(.88 1)"><tspan x="0" y="0">CNL</tspan></text>
      <g>
        <text/>
        <path class="cls-6" d="M641.56,106.82l.09-.15-2.03-.03s-.09,0-.13,0l-13.14-.18,5.6,10.02c.98,2.73,3.22,5.43,6.4,7.32,5.79,3.45,12.46,2.91,14.91-1.2,2.45-4.11-.26-10.24-6.04-13.69-1.85-1.1-3.78-1.79-5.64-2.1Z"/>
        <path class="cls-3" d="M626.21,91.63c.84,2.13,0,262.66,0,262.66h104.85V91.63l-52.42-18.88-52.42,18.88Z"/>
        <path class="cls-4" d="M678.98,74.41c.11.2,0,281.54,0,281.54"/>
        <path class="cls-6" d="M640.49,120.47l-.07.06-.22-1.13s-.01-.05-.01-.08l-1.43-7.34,6.17,2.13c1.63.27,3.36,1.26,4.74,2.85,2.51,2.89,2.89,6.69.83,8.47-2.05,1.79-5.76.89-8.27-2.01-.8-.92-1.39-1.94-1.74-2.95Z"/>
        <path class="cls-6" d="M658.44,110.42l-.07.06-.22-1.13s-.01-.05-.01-.08l-1.43-7.34,6.17,2.13c1.63.27,3.36,1.26,4.74,2.85,2.51,2.89,2.89,6.69.83,8.47-2.05,1.79-5.76.89-8.27-2.01-.8-.92-1.39-1.94-1.74-2.95Z"/>
        <path class="cls-6" d="M690.74,110.42l-.07.06-.22-1.13s-.01-.05-.01-.08l-1.43-7.34,6.17,2.13c1.63.27,3.36,1.26,4.74,2.85,2.51,2.89,2.89,6.69.83,8.47-2.05,1.79-5.76.89-8.27-2.01-.8-.92-1.39-1.94-1.74-2.95Z"/>
        <path class="cls-6" d="M710.84,120.47l-.07.06-.22-1.13s-.01-.05-.01-.08l-1.43-7.34,6.17,2.13c1.63.27,3.36,1.26,4.74,2.85,2.51,2.89,2.89,6.69.83,8.47s-5.76.89-8.27-2.01c-.8-.92-1.39-1.94-1.74-2.95Z"/>
        <path class="cls-6" d="M710.84,154.22l-.07.06-.22-1.13s-.01-.05-.01-.08l-1.43-7.34,6.17,2.13c1.63.27,3.36,1.26,4.74,2.85,2.51,2.89,2.89,6.69.83,8.47-2.05,1.79-5.76.89-8.27-2.01-.8-.92-1.39-1.94-1.74-2.95Z"/>
        <path class="cls-6" d="M690.74,147.75l-.07.06-.22-1.13s-.01-.05-.01-.08l-1.43-7.34,6.17,2.13c1.63.27,3.36,1.26,4.74,2.85,2.51,2.89,2.89,6.69.83,8.47-2.05,1.79-5.76.89-8.27-2.01-.8-.92-1.39-1.94-1.74-2.95Z"/>
        <path class="cls-6" d="M690.74,182.21l-.07.06-.22-1.13s-.01-.05-.01-.08l-1.43-7.34,6.17,2.13c1.63.27,3.36,1.26,4.74,2.85,2.51,2.89,2.89,6.69.83,8.47-2.05,1.79-5.76.89-8.27-2.01-.8-.92-1.39-1.94-1.74-2.95Z"/>
        <path class="cls-6" d="M710.84,187.96l-.07.06-.22-1.13s-.01-.05-.01-.08l-1.43-7.34,6.17,2.13c1.63.27,3.36,1.26,4.74,2.85,2.51,2.89,2.89,6.69.83,8.47s-5.76.89-8.27-2.01c-.8-.92-1.39-1.94-1.74-2.95Z"/>
        <path class="cls-6" d="M710.84,223.85l-.07.06-.22-1.13s-.01-.05-.01-.08l-1.43-7.34,6.17,2.13c1.63.27,3.36,1.26,4.74,2.85,2.51,2.89,2.89,6.69.83,8.47s-5.76.89-8.27-2.01c-.8-.92-1.39-1.94-1.74-2.95Z"/>
        <path class="cls-6" d="M690.74,215.24l-.07.06-.22-1.13s-.01-.05-.01-.08l-1.43-7.34,6.17,2.13c1.63.27,3.36,1.26,4.74,2.85,2.51,2.89,2.89,6.69.83,8.47-2.05,1.79-5.76.89-8.27-2.01-.8-.92-1.39-1.94-1.74-2.95Z"/>
        <path class="cls-6" d="M710.84,283.44l-.07.06-.22-1.13s-.01-.05-.01-.08l-1.43-7.34,6.17,2.13c1.63.27,3.36,1.26,4.74,2.85,2.51,2.89,2.89,6.69.83,8.47s-5.76.89-8.27-2.01c-.8-.92-1.39-1.94-1.74-2.95Z"/>
        <path class="cls-6" d="M710.84,254.01l-.07.06-.22-1.13s-.01-.05-.01-.08l-1.43-7.34,6.17,2.13c1.63.27,3.36,1.26,4.74,2.85,2.51,2.89,2.89,6.69.83,8.47s-5.76.89-8.27-2.01c-.8-.92-1.39-1.94-1.74-2.95Z"/>
        <path class="cls-6" d="M690.74,247.54l-.07.06-.22-1.13s-.01-.05-.01-.08l-1.43-7.34,6.17,2.13c1.63.27,3.36,1.26,4.74,2.85,2.51,2.89,2.89,6.69.83,8.47-2.05,1.79-5.76.89-8.27-2.01-.8-.92-1.39-1.94-1.74-2.95Z"/>
        <path class="cls-6" d="M690.74,280.57l-.07.06-.22-1.13s-.01-.05-.01-.08l-1.43-7.34,6.17,2.13c1.63.27,3.36,1.26,4.74,2.85,2.51,2.89,2.89,6.69.83,8.47-2.05,1.79-5.76.89-8.27-2.01-.8-.92-1.39-1.94-1.74-2.95Z"/>
        <path class="cls-6" d="M658.44,147.75l-.07.06-.22-1.13s-.01-.05-.01-.08l-1.43-7.34,6.17,2.13c1.63.27,3.36,1.26,4.74,2.85,2.51,2.89,2.89,6.69.83,8.47-2.05,1.79-5.76.89-8.27-2.01-.8-.92-1.39-1.94-1.74-2.95Z"/>
        <path class="cls-6" d="M640.49,154.22l-.07.06-.22-1.13s-.01-.05-.01-.08l-1.43-7.34,6.17,2.13c1.63.27,3.36,1.26,4.74,2.85,2.51,2.89,2.89,6.69.83,8.47s-5.76.89-8.27-2.01c-.8-.92-1.39-1.94-1.74-2.95Z"/>
        <path class="cls-6" d="M640.49,187.96l-.07.06-.22-1.13s-.01-.05-.01-.08l-1.43-7.34,6.17,2.13c1.63.27,3.36,1.26,4.74,2.85,2.51,2.89,2.89,6.69.83,8.47-2.05,1.79-5.76.89-8.27-2.01-.8-.92-1.39-1.94-1.74-2.95Z"/>
        <path class="cls-6" d="M658.44,182.21l-.07.06-.22-1.13s-.01-.05-.01-.08l-1.43-7.34,6.17,2.13c1.63.27,3.36,1.26,4.74,2.85,2.51,2.89,2.89,6.69.83,8.47s-5.76.89-8.27-2.01c-.8-.92-1.39-1.94-1.74-2.95Z"/>
        <path class="cls-6" d="M658.44,215.24l-.07.06-.22-1.13s-.01-.05-.01-.08l-1.43-7.34,6.17,2.13c1.63.27,3.36,1.26,4.74,2.85,2.51,2.89,2.89,6.69.83,8.47-2.05,1.79-5.76.89-8.27-2.01-.8-.92-1.39-1.94-1.74-2.95Z"/>
        <path class="cls-6" d="M640.49,223.85l-.07.06-.22-1.13s-.01-.05-.01-.08l-1.43-7.34,6.17,2.13c1.63.27,3.36,1.26,4.74,2.85,2.51,2.89,2.89,6.69.83,8.47-2.05,1.79-5.76.89-8.27-2.01-.8-.92-1.39-1.94-1.74-2.95Z"/>
        <path class="cls-6" d="M640.49,254.01l-.07.06-.22-1.13s-.01-.05-.01-.08l-1.43-7.34,6.17,2.13c1.63.27,3.36,1.26,4.74,2.85,2.51,2.89,2.89,6.69.83,8.47-2.05,1.79-5.76.89-8.27-2.01-.8-.92-1.39-1.94-1.74-2.95Z"/>
        <path class="cls-6" d="M640.49,283.44l-.07.06-.22-1.13s-.01-.05-.01-.08l-1.43-7.34,6.17,2.13c1.63.27,3.36,1.26,4.74,2.85,2.51,2.89,2.89,6.69.83,8.47-2.05,1.79-5.76.89-8.27-2.01-.8-.92-1.39-1.94-1.74-2.95Z"/>
        <path class="cls-6" d="M658.44,247.54l-.07.06-.22-1.13s-.01-.05-.01-.08l-1.43-7.34,6.17,2.13c1.63.27,3.36,1.26,4.74,2.85,2.51,2.89,2.89,6.69.83,8.47-2.05,1.79-5.76.89-8.27-2.01-.8-.92-1.39-1.94-1.74-2.95Z"/>
        <path class="cls-6" d="M658.44,280.57l-.07.06-.22-1.13s-.01-.05-.01-.08l-1.43-7.34,6.17,2.13c1.63.27,3.36,1.26,4.74,2.85,2.51,2.89,2.89,6.69.83,8.47-2.05,1.79-5.76.89-8.27-2.01-.8-.92-1.39-1.94-1.74-2.95Z"/>
      </g>
      <g>
        <text/>
        <path class="cls-6" d="M723.09,192.17l.08-.1-1.85-.02s-.08,0-.12,0l-11.96-.12,5.09,6.56c.89,1.79,2.93,3.55,5.82,4.79,5.27,2.26,11.34,1.91,13.57-.78,2.23-2.69-.23-6.7-5.5-8.96-1.68-.72-3.44-1.17-5.14-1.37Z"/>
        <path class="cls-3" d="M709.12,182.23c.76,1.4,0,171.91,0,171.91h95.39v-171.91l-47.7-12.36-47.7,12.36Z"/>
        <path class="cls-4" d="M757.13,170.96c.1.13,0,184.27,0,184.27"/>
        <path class="cls-6" d="M722.11,201.11l-.07.04-.2-.74s0-.03-.01-.05l-1.3-4.81,5.62,1.39c1.48.18,3.06.82,4.32,1.86,2.29,1.89,2.63,4.38.76,5.55-1.87,1.17-5.24.58-7.53-1.31-.73-.6-1.26-1.27-1.59-1.93Z"/>
        <path class="cls-6" d="M738.44,194.53l-.07.04-.2-.74s0-.03-.01-.05l-1.3-4.81,5.62,1.39c1.48.18,3.06.82,4.32,1.86,2.29,1.89,2.63,4.38.76,5.55s-5.24.58-7.53-1.31c-.73-.6-1.26-1.27-1.59-1.93Z"/>
        <path class="cls-6" d="M767.83,194.53l-.07.04-.2-.74s0-.03-.01-.05l-1.3-4.81,5.62,1.39c1.48.18,3.06.82,4.32,1.86,2.29,1.89,2.63,4.38.76,5.55s-5.24.58-7.53-1.31c-.73-.6-1.26-1.27-1.59-1.93Z"/>
        <path class="cls-6" d="M786.12,201.11l-.07.04-.2-.74s0-.03-.01-.05l-1.3-4.81,5.62,1.39c1.48.18,3.06.82,4.32,1.86,2.29,1.89,2.63,4.38.76,5.55-1.87,1.17-5.24.58-7.53-1.31-.73-.6-1.26-1.27-1.59-1.93Z"/>
        <path class="cls-6" d="M786.12,223.2l-.07.04-.2-.74s0-.03-.01-.05l-1.3-4.81,5.62,1.39c1.48.18,3.06.82,4.32,1.86,2.29,1.89,2.63,4.38.76,5.55-1.87,1.17-5.24.58-7.53-1.31-.73-.6-1.26-1.27-1.59-1.93Z"/>
        <path class="cls-6" d="M767.83,218.97l-.07.04-.2-.74s0-.03-.01-.05l-1.3-4.81,5.62,1.39c1.48.18,3.06.82,4.32,1.86,2.29,1.89,2.63,4.38.76,5.55-1.87,1.17-5.24.58-7.53-1.31-.73-.6-1.26-1.27-1.59-1.93Z"/>
        <path class="cls-6" d="M767.83,241.52l-.07.04-.2-.74s0-.03-.01-.05l-1.3-4.81,5.62,1.39c1.48.18,3.06.82,4.32,1.86,2.29,1.89,2.63,4.38.76,5.55-1.87,1.17-5.24.58-7.53-1.31-.73-.6-1.26-1.27-1.59-1.93Z"/>
        <path class="cls-6" d="M786.12,245.28l-.07.04-.2-.74s0-.03-.01-.05l-1.3-4.81,5.62,1.39c1.48.18,3.06.82,4.32,1.86,2.29,1.89,2.63,4.38.76,5.55s-5.24.58-7.53-1.31c-.73-.6-1.26-1.27-1.59-1.93Z"/>
        <path class="cls-6" d="M786.12,268.77l-.07.04-.2-.74s0-.03-.01-.05l-1.3-4.81,5.62,1.39c1.48.18,3.06.82,4.32,1.86,2.29,1.89,2.63,4.38.76,5.55-1.87,1.17-5.24.58-7.53-1.31-.73-.6-1.26-1.27-1.59-1.93Z"/>
        <path class="cls-6" d="M767.83,263.14l-.07.04-.2-.74s0-.03-.01-.05l-1.3-4.81,5.62,1.39c1.48.18,3.06.82,4.32,1.86,2.29,1.89,2.63,4.38.76,5.55s-5.24.58-7.53-1.31c-.73-.6-1.26-1.27-1.59-1.93Z"/>
        <path class="cls-6" d="M786.12,307.77l-.07.04-.2-.74s0-.03-.01-.05l-1.3-4.81,5.62,1.39c1.48.18,3.06.82,4.32,1.86,2.29,1.89,2.63,4.38.76,5.55-1.87,1.17-5.24.58-7.53-1.31-.73-.6-1.26-1.27-1.59-1.93Z"/>
        <path class="cls-6" d="M786.12,288.51l-.07.04-.2-.74s0-.03-.01-.05l-1.3-4.81,5.62,1.39c1.48.18,3.06.82,4.32,1.86,2.29,1.89,2.63,4.38.76,5.55-1.87,1.17-5.24.58-7.53-1.31-.73-.6-1.26-1.27-1.59-1.93Z"/>
        <path class="cls-6" d="M767.83,284.28l-.07.04-.2-.74s0-.03-.01-.05l-1.3-4.81,5.62,1.39c1.48.18,3.06.82,4.32,1.86,2.29,1.89,2.63,4.38.76,5.55s-5.24.58-7.53-1.31c-.73-.6-1.26-1.27-1.59-1.93Z"/>
        <path class="cls-6" d="M767.83,305.89l-.07.04-.2-.74s0-.03-.01-.05l-1.3-4.81,5.62,1.39c1.48.18,3.06.82,4.32,1.86,2.29,1.89,2.63,4.38.76,5.55s-5.24.58-7.53-1.31c-.73-.6-1.26-1.27-1.59-1.93Z"/>
        <path class="cls-6" d="M738.44,218.97l-.07.04-.2-.74s0-.03-.01-.05l-1.3-4.81,5.62,1.39c1.48.18,3.06.82,4.32,1.86,2.29,1.89,2.63,4.38.76,5.55-1.87,1.17-5.24.58-7.53-1.31-.73-.6-1.26-1.27-1.59-1.93Z"/>
        <path class="cls-6" d="M722.11,223.2l-.07.04-.2-.74s0-.03-.01-.05l-1.3-4.81,5.62,1.39c1.48.18,3.06.82,4.32,1.86,2.29,1.89,2.63,4.38.76,5.55-1.87,1.17-5.24.58-7.53-1.31-.73-.6-1.26-1.27-1.59-1.93Z"/>
        <path class="cls-6" d="M722.11,245.28l-.07.04-.2-.74s0-.03-.01-.05l-1.3-4.81,5.62,1.39c1.48.18,3.06.82,4.32,1.86,2.29,1.89,2.63,4.38.76,5.55-1.87,1.17-5.24.58-7.53-1.31-.73-.6-1.26-1.27-1.59-1.93Z"/>
        <path class="cls-6" d="M738.44,241.52l-.07.04-.2-.74s0-.03-.01-.05l-1.3-4.81,5.62,1.39c1.48.18,3.06.82,4.32,1.86,2.29,1.89,2.63,4.38.76,5.55-1.87,1.17-5.24.58-7.53-1.31-.73-.6-1.26-1.27-1.59-1.93Z"/>
        <path class="cls-6" d="M738.44,263.14l-.07.04-.2-.74s0-.03-.01-.05l-1.3-4.81,5.62,1.39c1.48.18,3.06.82,4.32,1.86,2.29,1.89,2.63,4.38.76,5.55s-5.24.58-7.53-1.31c-.73-.6-1.26-1.27-1.59-1.93Z"/>
        <path class="cls-6" d="M722.11,268.77l-.07.04-.2-.74s0-.03-.01-.05l-1.3-4.81,5.62,1.39c1.48.18,3.06.82,4.32,1.86,2.29,1.89,2.63,4.38.76,5.55-1.87,1.17-5.24.58-7.53-1.31-.73-.6-1.26-1.27-1.59-1.93Z"/>
        <path class="cls-6" d="M722.11,288.51l-.07.04-.2-.74s0-.03-.01-.05l-1.3-4.81,5.62,1.39c1.48.18,3.06.82,4.32,1.86,2.29,1.89,2.63,4.38.76,5.55-1.87,1.17-5.24.58-7.53-1.31-.73-.6-1.26-1.27-1.59-1.93Z"/>
        <path class="cls-6" d="M722.11,307.77l-.07.04-.2-.74s0-.03-.01-.05l-1.3-4.81,5.62,1.39c1.48.18,3.06.82,4.32,1.86,2.29,1.89,2.63,4.38.76,5.55s-5.24.58-7.53-1.31c-.73-.6-1.26-1.27-1.59-1.93Z"/>
        <path class="cls-6" d="M738.44,284.28l-.07.04-.2-.74s0-.03-.01-.05l-1.3-4.81,5.62,1.39c1.48.18,3.06.82,4.32,1.86,2.29,1.89,2.63,4.38.76,5.55s-5.24.58-7.53-1.31c-.73-.6-1.26-1.27-1.59-1.93Z"/>
        <path class="cls-6" d="M738.44,305.89l-.07.04-.2-.74s0-.03-.01-.05l-1.3-4.81,5.62,1.39c1.48.18,3.06.82,4.32,1.86,2.29,1.89,2.63,4.38.76,5.55s-5.24.58-7.53-1.31c-.73-.6-1.26-1.27-1.59-1.93Z"/>
      </g>
      <text class="cls-9" transform="translate(52.8 355.09)"><tspan x="0" y="0">construct n</tspan><tspan class="cls-1" x="360.7" y="0">e</tspan><tspan x="396.34" y="0">w li</tspan><tspan class="cls-7" x="506.07" y="0">f</tspan><tspan class="cls-8" x="530.05" y="0">e</tspan></text>
    </g>
  </g>
</svg>